<?xml version="1.0" encoding="UTF-8"?>
<svg xmlns="http://www.w3.org/2000/svg" xmlns:xlink="http://www.w3.org/1999/xlink" width="12pt" height="12pt" viewBox="0 0 12 12" version="1.1">
<g id="surface1956884">
<path style=" stroke:none;fill-rule:nonzero;fill:rgb(20%,20%,20%);fill-opacity:1;" d="M 5.449219 1.050781 C 3.148438 1.300781 1.300781 3.148438 1.050781 5.398438 C 0.800781 7.75 2.148438 9.851562 4.199219 10.648438 C 4.351562 10.699219 4.5 10.601562 4.5 10.398438 L 4.5 9.601562 C 4.5 9.601562 4.300781 9.648438 4.050781 9.648438 C 3.351562 9.648438 3.050781 9.050781 3 8.699219 C 2.949219 8.5 2.851562 8.351562 2.699219 8.199219 C 2.550781 8.148438 2.5 8.148438 2.5 8.101562 C 2.5 8 2.648438 8 2.699219 8 C 3 8 3.25 8.351562 3.351562 8.5 C 3.601562 8.898438 3.898438 9 4.050781 9 C 4.25 9 4.398438 8.949219 4.5 8.898438 C 4.550781 8.550781 4.699219 8.199219 5 8 C 3.851562 7.75 3 7.101562 3 6 C 3 5.449219 3.25 4.898438 3.601562 4.5 C 3.550781 4.398438 3.5 4.148438 3.5 3.800781 C 3.5 3.601562 3.5 3.351562 3.601562 3.148438 C 3.601562 3.050781 3.699219 3 3.75 3 L 3.800781 3 C 4.050781 3.050781 4.550781 3.199219 5 3.648438 C 5.300781 3.550781 5.648438 3.5 6 3.5 C 6.351562 3.5 6.699219 3.550781 7 3.648438 C 7.449219 3.199219 8 3.050781 8.25 3 L 8.300781 3 C 8.398438 3 8.449219 3.050781 8.5 3.148438 C 8.5 3.351562 8.5 3.601562 8.5 3.800781 C 8.5 4.199219 8.449219 4.398438 8.398438 4.5 C 8.75 4.898438 9 5.398438 9 6 C 9 7.101562 8.148438 7.75 7 8 C 7.300781 8.25 7.5 8.699219 7.5 9.148438 L 7.5 10.449219 C 7.5 10.601562 7.648438 10.75 7.851562 10.699219 C 9.699219 9.949219 11 8.148438 11 6.050781 C 11 3.050781 8.449219 0.699219 5.449219 1.050781 Z M 5.449219 1.050781 "/>
</g>
</svg>
